<svg xmlns="http://www.w3.org/2000/svg" viewBox="0 0 64 64" role="img" aria-labelledby="title">
  <title>Sellable</title>
  <defs>
    <linearGradient id="bg" x1="0%" x2="100%" y1="0%" y2="100%">
      <stop offset="0%" stop-color="#d86d3c" />
      <stop offset="100%" stop-color="#8d3410" />
    </linearGradient>
  </defs>
  <rect width="64" height="64" rx="18" fill="url(#bg)" />
  <path
    fill="#fff8f1"
    d="M18.54 43.66V37.8c3.33 2.12 7.08 3.18 11.24 3.18 4.7 0 7.04-1.36 7.04-4.08 0-1.08-.47-1.97-1.4-2.66-.9-.72-2.6-1.56-5.12-2.52-4.56-1.76-7.7-3.43-9.42-5.02-1.72-1.62-2.58-3.73-2.58-6.34 0-3.06 1.3-5.53 3.9-7.42 2.6-1.92 6.01-2.88 10.24-2.88 3.18 0 6.1.46 8.76 1.38v5.62c-2.55-1.41-5.67-2.12-9.36-2.12-2.08 0-3.73.35-4.96 1.04-1.2.66-1.8 1.61-1.8 2.84 0 1.08.38 1.95 1.14 2.62.8.63 2.49 1.43 5.08 2.4 4.76 1.79 8.05 3.51 9.88 5.16 1.86 1.62 2.8 3.8 2.8 6.54 0 3.22-1.34 5.77-4.02 7.66-2.68 1.89-6.3 2.84-10.86 2.84-4.15 0-7.73-.58-10.76-1.74Z"
  />
</svg>
